<mxfile host="app.diagrams.net" agent="Mozilla/5.0 (Windows NT 10.0; Win64; x64) AppleWebKit/537.36 (KHTML, like Gecko) Chrome/128.0.0.0 Safari/537.36" version="24.7.14">
  <diagram name="第 1 页" id="Sim2oJJFa_xK8Lp4v0XA">
    <mxGraphModel dx="1815" dy="867" grid="1" gridSize="10" guides="1" tooltips="1" connect="1" arrows="1" fold="1" page="1" pageScale="1" pageWidth="827" pageHeight="1169" math="0" shadow="0">
      <root>
        <mxCell id="0" />
        <mxCell id="1" parent="0" />
        <mxCell id="3ECQQnP9UvPKkCoZ3C8z-29" style="edgeStyle=orthogonalEdgeStyle;rounded=0;orthogonalLoop=1;jettySize=auto;html=1;exitX=1;exitY=0.5;exitDx=0;exitDy=0;entryX=0;entryY=0.5;entryDx=0;entryDy=0;" edge="1" parent="1" source="3ECQQnP9UvPKkCoZ3C8z-1" target="3ECQQnP9UvPKkCoZ3C8z-14">
          <mxGeometry relative="1" as="geometry" />
        </mxCell>
        <mxCell id="3ECQQnP9UvPKkCoZ3C8z-1" value="AnimInstance" style="rounded=0;whiteSpace=wrap;html=1;fillColor=#dae8fc;strokeColor=#6c8ebf;" vertex="1" parent="1">
          <mxGeometry x="180" y="540" width="120" height="60" as="geometry" />
        </mxCell>
        <mxCell id="3ECQQnP9UvPKkCoZ3C8z-5" style="rounded=0;orthogonalLoop=1;jettySize=auto;html=1;exitX=0.5;exitY=0;exitDx=0;exitDy=0;entryX=0.5;entryY=1;entryDx=0;entryDy=0;" edge="1" parent="1" source="3ECQQnP9UvPKkCoZ3C8z-2" target="3ECQQnP9UvPKkCoZ3C8z-4">
          <mxGeometry relative="1" as="geometry" />
        </mxCell>
        <mxCell id="3ECQQnP9UvPKkCoZ3C8z-2" value="SkeletalMeshComponent" style="rounded=0;whiteSpace=wrap;html=1;fillColor=#e1d5e7;strokeColor=#9673a6;" vertex="1" parent="1">
          <mxGeometry x="140" y="420" width="200" height="70" as="geometry" />
        </mxCell>
        <mxCell id="3ECQQnP9UvPKkCoZ3C8z-4" value="Actor" style="rounded=0;whiteSpace=wrap;html=1;fillColor=#f8cecc;strokeColor=#b85450;" vertex="1" parent="1">
          <mxGeometry x="20" y="310" width="200" height="70" as="geometry" />
        </mxCell>
        <mxCell id="3ECQQnP9UvPKkCoZ3C8z-6" value="" style="endArrow=classic;startArrow=classic;html=1;rounded=0;exitX=0.5;exitY=0;exitDx=0;exitDy=0;entryX=0.5;entryY=1;entryDx=0;entryDy=0;" edge="1" parent="1" source="3ECQQnP9UvPKkCoZ3C8z-1" target="3ECQQnP9UvPKkCoZ3C8z-2">
          <mxGeometry width="50" height="50" relative="1" as="geometry">
            <mxPoint x="330" y="400" as="sourcePoint" />
            <mxPoint x="380" y="350" as="targetPoint" />
          </mxGeometry>
        </mxCell>
        <mxCell id="3ECQQnP9UvPKkCoZ3C8z-8" value="AnimInstance" style="rounded=0;whiteSpace=wrap;html=1;fillColor=#dae8fc;strokeColor=#6c8ebf;" vertex="1" parent="1">
          <mxGeometry x="-40" y="545" width="120" height="60" as="geometry" />
        </mxCell>
        <mxCell id="3ECQQnP9UvPKkCoZ3C8z-12" style="rounded=0;orthogonalLoop=1;jettySize=auto;html=1;exitX=0.5;exitY=0;exitDx=0;exitDy=0;entryX=0.5;entryY=1;entryDx=0;entryDy=0;" edge="1" parent="1" source="3ECQQnP9UvPKkCoZ3C8z-9" target="3ECQQnP9UvPKkCoZ3C8z-4">
          <mxGeometry relative="1" as="geometry" />
        </mxCell>
        <mxCell id="3ECQQnP9UvPKkCoZ3C8z-9" value="SkeletalMeshComponent" style="rounded=0;whiteSpace=wrap;html=1;fillColor=#e1d5e7;strokeColor=#9673a6;" vertex="1" parent="1">
          <mxGeometry x="-80" y="425" width="200" height="70" as="geometry" />
        </mxCell>
        <mxCell id="3ECQQnP9UvPKkCoZ3C8z-10" value="" style="endArrow=classic;startArrow=classic;html=1;rounded=0;exitX=0.5;exitY=0;exitDx=0;exitDy=0;entryX=0.5;entryY=1;entryDx=0;entryDy=0;" edge="1" parent="1" source="3ECQQnP9UvPKkCoZ3C8z-8" target="3ECQQnP9UvPKkCoZ3C8z-9">
          <mxGeometry width="50" height="50" relative="1" as="geometry">
            <mxPoint x="110" y="405" as="sourcePoint" />
            <mxPoint x="160" y="355" as="targetPoint" />
          </mxGeometry>
        </mxCell>
        <mxCell id="3ECQQnP9UvPKkCoZ3C8z-23" style="rounded=0;orthogonalLoop=1;jettySize=auto;html=1;exitX=0.5;exitY=1;exitDx=0;exitDy=0;entryX=0.5;entryY=0;entryDx=0;entryDy=0;" edge="1" parent="1" source="3ECQQnP9UvPKkCoZ3C8z-13" target="3ECQQnP9UvPKkCoZ3C8z-14">
          <mxGeometry relative="1" as="geometry" />
        </mxCell>
        <mxCell id="3ECQQnP9UvPKkCoZ3C8z-24" style="rounded=0;orthogonalLoop=1;jettySize=auto;html=1;exitX=0.5;exitY=1;exitDx=0;exitDy=0;entryX=0.5;entryY=0;entryDx=0;entryDy=0;" edge="1" parent="1" source="3ECQQnP9UvPKkCoZ3C8z-13" target="3ECQQnP9UvPKkCoZ3C8z-22">
          <mxGeometry relative="1" as="geometry" />
        </mxCell>
        <mxCell id="3ECQQnP9UvPKkCoZ3C8z-13" value="AnimMontage" style="rounded=0;whiteSpace=wrap;html=1;fillColor=#fff2cc;strokeColor=#d6b656;" vertex="1" parent="1">
          <mxGeometry x="520" y="470" width="120" height="60" as="geometry" />
        </mxCell>
        <mxCell id="3ECQQnP9UvPKkCoZ3C8z-14" value="AnimMontageIntsance" style="rounded=0;whiteSpace=wrap;html=1;fillColor=#ffe6cc;strokeColor=#d79b00;" vertex="1" parent="1">
          <mxGeometry x="400" y="670" width="160" height="70" as="geometry" />
        </mxCell>
        <mxCell id="3ECQQnP9UvPKkCoZ3C8z-21" style="rounded=0;orthogonalLoop=1;jettySize=auto;html=1;exitX=0;exitY=0.5;exitDx=0;exitDy=0;entryX=1;entryY=0.75;entryDx=0;entryDy=0;" edge="1" parent="1" source="3ECQQnP9UvPKkCoZ3C8z-16" target="3ECQQnP9UvPKkCoZ3C8z-13">
          <mxGeometry relative="1" as="geometry" />
        </mxCell>
        <mxCell id="3ECQQnP9UvPKkCoZ3C8z-16" value="AnimNotifyState" style="rounded=0;whiteSpace=wrap;html=1;fillColor=#FFFF99;strokeColor=#d6b656;" vertex="1" parent="1">
          <mxGeometry x="690" y="520" width="120" height="60" as="geometry" />
        </mxCell>
        <mxCell id="3ECQQnP9UvPKkCoZ3C8z-19" style="rounded=0;orthogonalLoop=1;jettySize=auto;html=1;exitX=0;exitY=0.5;exitDx=0;exitDy=0;entryX=1;entryY=0.25;entryDx=0;entryDy=0;" edge="1" parent="1" source="3ECQQnP9UvPKkCoZ3C8z-18" target="3ECQQnP9UvPKkCoZ3C8z-13">
          <mxGeometry relative="1" as="geometry" />
        </mxCell>
        <mxCell id="3ECQQnP9UvPKkCoZ3C8z-18" value="AnimNotify" style="rounded=0;whiteSpace=wrap;html=1;fillColor=#FFFF99;strokeColor=#d6b656;" vertex="1" parent="1">
          <mxGeometry x="690" y="425" width="120" height="60" as="geometry" />
        </mxCell>
        <mxCell id="3ECQQnP9UvPKkCoZ3C8z-22" value="AnimMontageIntsance" style="rounded=0;whiteSpace=wrap;html=1;fillColor=#ffe6cc;strokeColor=#d79b00;" vertex="1" parent="1">
          <mxGeometry x="610" y="670" width="160" height="70" as="geometry" />
        </mxCell>
        <mxCell id="3ECQQnP9UvPKkCoZ3C8z-26" value="绑定" style="text;html=1;align=center;verticalAlign=middle;whiteSpace=wrap;rounded=0;" vertex="1" parent="1">
          <mxGeometry x="630" y="395" width="60" height="30" as="geometry" />
        </mxCell>
        <mxCell id="3ECQQnP9UvPKkCoZ3C8z-27" value="......" style="text;html=1;align=center;verticalAlign=middle;whiteSpace=wrap;rounded=0;" vertex="1" parent="1">
          <mxGeometry x="550" y="690" width="60" height="30" as="geometry" />
        </mxCell>
        <mxCell id="3ECQQnP9UvPKkCoZ3C8z-28" value="绑定" style="text;html=1;align=center;verticalAlign=middle;whiteSpace=wrap;rounded=0;" vertex="1" parent="1">
          <mxGeometry x="170" y="500" width="60" height="30" as="geometry" />
        </mxCell>
        <mxCell id="3ECQQnP9UvPKkCoZ3C8z-30" value="播放蒙太奇时生成实例" style="text;html=1;align=center;verticalAlign=middle;whiteSpace=wrap;rounded=0;" vertex="1" parent="1">
          <mxGeometry x="350" y="600" width="140" height="30" as="geometry" />
        </mxCell>
        <mxCell id="3ECQQnP9UvPKkCoZ3C8z-31" value="实例绑定资产的数据" style="text;html=1;align=center;verticalAlign=middle;whiteSpace=wrap;rounded=0;" vertex="1" parent="1">
          <mxGeometry x="510" y="620" width="140" height="30" as="geometry" />
        </mxCell>
      </root>
    </mxGraphModel>
  </diagram>
</mxfile>
